<svg width="27" height="28" viewBox="0 0 27 28" fill="none" xmlns="http://www.w3.org/2000/svg">
<rect y="0.734741" width="27" height="26.449" rx="8" fill="#0F242F" fill-opacity="0.1"/>
<rect x="0.5" y="1.23474" width="26" height="25.449" rx="7.5" stroke="#0F242F" stroke-opacity="0.1"/>
<path fill-rule="evenodd" clip-rule="evenodd" d="M16.1117 8.1972H11.165C9.24404 8.1972 7.96399 9.52815 7.96399 11.4385V15.956C7.96399 17.8681 9.24067 19.1972 11.165 19.1972H16.1117C18.036 19.1972 19.3127 17.8681 19.3127 15.956V11.4385C19.3127 9.52637 18.036 8.1972 16.1117 8.1972ZM11.1651 8.9646H16.1118C17.5857 8.9646 18.521 9.9384 18.521 11.4384V15.9559C18.521 17.456 17.5857 18.4298 16.1118 18.4298H11.1651C9.69121 18.4298 8.75587 17.456 8.75587 15.9559V11.4384C8.75587 9.94039 9.69434 8.9646 11.1651 8.9646ZM14.0508 11.0455C14.0246 10.8582 13.8589 10.7139 13.6585 10.7139C13.4399 10.7139 13.2626 10.8857 13.2626 11.0976V16.2869L13.2663 16.339C13.2925 16.5263 13.4581 16.6706 13.6585 16.6706C13.8772 16.6706 14.0544 16.4988 14.0544 16.2869V11.0976L14.0508 11.0455ZM11.5874 12.725C11.5612 12.5377 11.3955 12.3934 11.1951 12.3934C10.9765 12.3934 10.7992 12.5652 10.7992 12.7771V16.287L10.8029 16.339C10.8291 16.5263 10.9947 16.6707 11.1951 16.6707C11.4138 16.6707 11.591 16.4989 11.591 16.287V12.7771L11.5874 12.725ZM16.0815 14.2482C16.2819 14.2482 16.4476 14.3925 16.4738 14.5798L16.4774 14.6319V16.287C16.4774 16.4989 16.3001 16.6707 16.0815 16.6707C15.8811 16.6707 15.7154 16.5264 15.6892 16.3391L15.6856 16.287V14.6319C15.6856 14.42 15.8629 14.2482 16.0815 14.2482Z" fill="#0F242F"/>
</svg>
