<svg width="27" height="27" viewBox="0 0 27 27" fill="none" xmlns="http://www.w3.org/2000/svg">
<rect width="27" height="26.449" rx="8" fill="#FFC700" fill-opacity="0.1"/>
<rect x="0.5" y="0.5" width="26" height="25.449" rx="7.5" stroke="#FFC700" stroke-opacity="0.1"/>
<g clip-path="url(#clip0)">
<path d="M10.2841 11.1083C11.8182 11.1083 13.0745 9.86518 13.0745 8.31791C13.0745 6.77065 11.8182 5.54077 10.2841 5.54077C8.7501 5.54077 7.49377 6.78387 7.49377 8.33114C7.49377 9.8784 8.73688 11.1083 10.2841 11.1083ZM10.0461 6.87644V6.53261C10.0461 6.49293 10.0858 6.45326 10.1254 6.45326H10.4428C10.4825 6.45326 10.5222 6.49293 10.5222 6.53261V6.87644C10.9454 6.88967 11.3024 7.22028 11.3421 7.63024C11.3421 7.66991 11.3157 7.70959 11.2628 7.70959H10.9454C10.9057 7.70959 10.8792 7.68314 10.866 7.64347C10.8396 7.47155 10.6809 7.32608 10.4957 7.32608H10.0726C9.87418 7.32608 9.68904 7.48477 9.68904 7.68314C9.67582 7.89473 9.84773 8.07987 10.0726 8.07987H10.4825C10.9454 8.07987 11.3421 8.46338 11.3421 8.92624C11.3421 9.37587 10.9718 9.74616 10.5222 9.75938V10.1032C10.5222 10.1429 10.4825 10.1826 10.4428 10.1826H10.1254C10.0858 10.1826 10.0461 10.1429 10.0461 10.1032V9.75938C9.62292 9.74616 9.26586 9.41555 9.22618 9.00559C9.22618 8.96591 9.25263 8.92624 9.30553 8.92624H9.62292C9.66259 8.92624 9.68904 8.95269 9.70226 8.99236C9.72871 9.16428 9.88741 9.30975 10.0726 9.30975H10.4957C10.6941 9.30975 10.8792 9.15106 10.8792 8.95269C10.8925 8.7411 10.7206 8.55595 10.4957 8.55595H10.0726C9.60969 8.55595 9.21296 8.17244 9.21296 7.70959C9.22618 7.25995 9.59647 6.88967 10.0461 6.87644Z" fill="#FFC700"/>
<path d="M8.69723 13.4887C12.9423 13.449 16.6848 11.2141 18.642 7.61703L18.9991 8.68821C19.0785 8.91303 19.29 9.0585 19.5149 9.0585C19.5678 9.0585 19.6339 9.04527 19.6868 9.03205C19.9777 8.93947 20.1232 8.63531 20.0306 8.34437L19.2636 6.04331C19.171 5.75237 18.8536 5.6069 18.5759 5.69948L16.2749 6.4665C15.9839 6.55907 15.8385 6.86323 15.931 7.15417C16.0236 7.44511 16.3278 7.59058 16.6187 7.49801L17.6634 7.15417C15.8914 10.3677 12.5059 12.3646 8.69723 12.3911C8.39307 12.3911 8.15503 12.6423 8.15503 12.9465C8.15503 13.2507 8.40629 13.4887 8.69723 13.4887Z" fill="#FFC700"/>
<path d="M10.0064 14.9302H8.6178C8.40621 14.9302 8.22107 15.1021 8.22107 15.3269V17.2048C8.22107 17.4164 8.39299 17.6015 8.6178 17.6015H9.99315C10.2047 17.6015 10.3899 17.4296 10.3899 17.2048V15.3269C10.3899 15.1021 10.218 14.9302 10.0064 14.9302Z" fill="#FFC700"/>
<path d="M13.1669 14.3484H11.7783C11.5667 14.3484 11.3816 14.5203 11.3816 14.7451V17.2049C11.3816 17.4165 11.5535 17.6016 11.7783 17.6016H13.1537C13.3653 17.6016 13.5504 17.4297 13.5504 17.2049V14.7451C13.5504 14.5335 13.3785 14.3484 13.1669 14.3484Z" fill="#FFC700"/>
<path d="M16.3278 13.2109H14.9392C14.7276 13.2109 14.5425 13.3829 14.5425 13.6077V17.218C14.5425 17.4295 14.7144 17.6147 14.9392 17.6147H16.3146C16.5262 17.6147 16.7113 17.4428 16.7113 17.218V13.5944C16.7245 13.3829 16.5394 13.2109 16.3278 13.2109Z" fill="#FFC700"/>
<path d="M19.4885 10.91H18.1132C17.9016 10.91 17.7164 11.082 17.7164 11.3068V17.2181C17.7164 17.4297 17.8883 17.6148 18.1132 17.6148H19.4885C19.7001 17.6148 19.8852 17.4429 19.8852 17.2181V11.2935C19.8852 11.082 19.7001 10.91 19.4885 10.91Z" fill="#FFC700"/>
</g>
<defs>
<clipPath id="clip0">
<rect width="13.2245" height="16.5306" fill="white" transform="translate(7.16321 4.95911)"/>
</clipPath>
</defs>
</svg>
