<svg width="27" height="27" viewBox="0 0 27 27" fill="none" xmlns="http://www.w3.org/2000/svg">
<rect width="27" height="26.449" rx="8" fill="#00BA88" fill-opacity="0.1"/>
<rect x="0.5" y="0.5" width="26" height="25.449" rx="7.5" stroke="#00BA88" stroke-opacity="0.1"/>
<g clip-path="url(#clip0)">
<path d="M17.1081 13.0659C15.3757 13.0659 13.9739 11.6906 13.9739 9.99785C13.9739 8.31834 15.389 6.94299 17.1081 6.94299C18.8405 6.94299 20.2423 8.31834 20.2423 10.0111C20.2423 11.6906 18.8405 13.0659 17.1081 13.0659ZM17.1081 7.47197C15.6667 7.47197 14.5029 8.60928 14.5029 10.0111C14.5029 11.4129 15.6667 12.5502 17.1081 12.5502C18.5496 12.5502 19.7134 11.4129 19.7134 10.0111C19.7134 8.60928 18.5496 7.47197 17.1081 7.47197Z" fill="#00BA88"/>
<path d="M17.1082 9.74661C16.8305 9.74661 16.6057 9.54825 16.6057 9.31021C16.6057 9.07217 16.8305 8.8738 17.1082 8.8738C17.3859 8.8738 17.6108 9.07217 17.6108 9.31021C17.6108 9.45568 17.7298 9.5747 17.8753 9.5747C18.0207 9.5747 18.1397 9.45568 18.1397 9.31021C18.1397 8.8738 17.8091 8.50351 17.3727 8.38449V7.94808C17.3727 7.80261 17.2537 7.68359 17.1082 7.68359C16.9628 7.68359 16.8437 7.80261 16.8437 7.94808V8.38449C16.4073 8.49029 16.0767 8.86057 16.0767 9.31021C16.0767 9.83919 16.5396 10.2624 17.1082 10.2624C17.3859 10.2624 17.6108 10.4607 17.6108 10.6988C17.6108 10.9368 17.3859 11.1352 17.1082 11.1352C16.8305 11.1352 16.6057 10.9368 16.6057 10.6988C16.6057 10.5533 16.4867 10.4343 16.3412 10.4343C16.1957 10.4343 16.0767 10.5533 16.0767 10.6988C16.0767 11.1352 16.4073 11.5055 16.8437 11.6245V12.0609C16.8437 12.2064 16.9628 12.3254 17.1082 12.3254C17.2537 12.3254 17.3727 12.2064 17.3727 12.0609V11.6245C17.8091 11.5187 18.1397 11.1484 18.1397 10.6988C18.153 10.1698 17.6901 9.74661 17.1082 9.74661Z" fill="#00BA88"/>
<path d="M19.8456 14.0842H14.45C14.2252 14.0842 14.0533 13.9123 14.0533 13.6874C14.0533 13.4626 14.2252 13.2907 14.45 13.2907H19.8588C20.0837 13.2907 20.2556 13.4626 20.2556 13.6874C20.2556 13.9123 20.0704 14.0842 19.8456 14.0842Z" fill="#00BA88"/>
<path d="M19.8456 15.1421H14.45C14.2252 15.1421 14.0533 14.9702 14.0533 14.7454C14.0533 14.5206 14.2252 14.3486 14.45 14.3486H19.8588C20.0837 14.3486 20.2556 14.5206 20.2556 14.7454C20.2556 14.9702 20.0704 15.1421 19.8456 15.1421Z" fill="#00BA88"/>
<path d="M19.8456 16.2002H14.45C14.2252 16.2002 14.0533 16.0283 14.0533 15.8035C14.0533 15.5787 14.2252 15.4067 14.45 15.4067H19.8588C20.0837 15.4067 20.2556 15.5787 20.2556 15.8035C20.2556 16.0283 20.0704 16.2002 19.8456 16.2002Z" fill="#00BA88"/>
<path d="M13.1012 16.2002H7.70557C7.48076 16.2002 7.30884 16.0283 7.30884 15.8035C7.30884 15.5787 7.48076 15.4067 7.70557 15.4067H13.1144C13.3392 15.4067 13.5111 15.5787 13.5111 15.8035C13.5111 16.0283 13.326 16.2002 13.1012 16.2002Z" fill="#00BA88"/>
<path d="M13.1012 15.1421H7.70557C7.48076 15.1421 7.30884 14.9702 7.30884 14.7454C7.30884 14.5206 7.48076 14.3486 7.70557 14.3486H13.1144C13.3392 14.3486 13.5111 14.5206 13.5111 14.7454C13.5111 14.9702 13.326 15.1421 13.1012 15.1421Z" fill="#00BA88"/>
<path d="M13.1012 14.0842H7.70557C7.48076 14.0842 7.30884 13.9123 7.30884 13.6874C7.30884 13.4626 7.48076 13.2907 7.70557 13.2907H13.1144C13.3392 13.2907 13.5111 13.4626 13.5111 13.6874C13.5111 13.9123 13.326 14.0842 13.1012 14.0842Z" fill="#00BA88"/>
<path d="M13.1012 13.0263H7.70557C7.48076 13.0263 7.30884 12.8544 7.30884 12.6296C7.30884 12.4048 7.48076 12.2328 7.70557 12.2328H13.1144C13.3392 12.2328 13.5111 12.4048 13.5111 12.6296C13.5111 12.8544 13.326 13.0263 13.1012 13.0263Z" fill="#00BA88"/>
<path d="M13.1012 11.9682H7.70557C7.48076 11.9682 7.30884 11.7963 7.30884 11.5715C7.30884 11.3467 7.48076 11.1747 7.70557 11.1747H13.1144C13.3392 11.1747 13.5111 11.3467 13.5111 11.5715C13.5111 11.7963 13.326 11.9682 13.1012 11.9682Z" fill="#00BA88"/>
<path d="M13.1012 10.9104H7.70557C7.48076 10.9104 7.30884 10.7384 7.30884 10.5136C7.30884 10.2888 7.48076 10.1169 7.70557 10.1169H13.1144C13.3392 10.1169 13.5111 10.2888 13.5111 10.5136C13.5111 10.7384 13.326 10.9104 13.1012 10.9104Z" fill="#00BA88"/>
</g>
<defs>
<clipPath id="clip0">
<rect width="13.2245" height="16.5306" fill="white" transform="translate(7.16327 4.95923)"/>
</clipPath>
</defs>
</svg>
