<svg width="100" height="100" viewBox="0 0 100 100" fill="none" xmlns="http://www.w3.org/2000/svg">
<rect opacity="0.1" width="100" height="100" rx="20" fill="#CD1A11"/>
<path fill-rule="evenodd" clip-rule="evenodd" d="M55.3173 58.3205C56.0605 57.5699 56.0605 56.3535 55.3173 55.6029L52.1909 52.4452L55.3173 49.2875C56.0605 48.537 56.0605 47.3205 55.3173 46.5699C54.5741 45.7934 53.3441 45.7934 52.6009 46.5699L49.4745 49.7276L46.3481 46.5699C45.605 45.7934 44.4005 45.7934 43.6574 46.5699C42.9142 47.3205 42.9142 48.537 43.6574 49.2875L46.7838 52.4452L43.6574 55.6029C42.9142 56.3535 42.9142 57.5699 43.6574 58.3205C44.0162 58.7088 44.503 58.8899 44.9899 58.8899C45.4768 58.8899 45.9894 58.7088 46.3481 58.3205L49.4745 55.1629L52.6009 58.3205C52.9853 58.7088 53.4722 58.8899 53.9591 58.8899C54.446 58.8899 54.9329 58.7088 55.3173 58.3205ZM68.9858 42.1839C69.5894 42.177 70.2425 42.1695 70.8214 42.1695C71.4877 42.1695 72.0002 42.6871 72.0002 43.3342V64.1437C72.0002 70.5626 66.8493 75.7649 60.4684 75.7649H40.0956C33.4071 75.7649 28 70.3037 28 63.5743V35.673C28 29.2541 33.1765 24 39.5574 24H53.2418C53.8825 24 54.4206 24.5435 54.4206 25.1906V33.5247C54.4206 38.2612 58.2902 42.1436 62.9798 42.1695C64.0628 42.1695 65.0319 42.1777 65.878 42.1849C66.5333 42.1904 67.1148 42.1954 67.6181 42.1954C67.9852 42.1954 68.4672 42.1898 68.9858 42.1839ZM69.6858 38.407C67.5793 38.4147 65.0987 38.407 63.3126 38.3888C60.4783 38.3888 58.1438 36.031 58.1438 33.1684V26.3457C58.1438 25.2302 59.484 24.6763 60.2477 25.4813C62.2206 27.5513 65.2406 30.7234 67.7936 33.405C68.8286 34.492 69.7868 35.4985 70.5674 36.3182C71.3131 37.1025 70.7672 38.4044 69.6858 38.407Z" fill="#CD1A11"/>
</svg>
