<svg width="22" height="21" viewBox="0 0 22 21" fill="none" xmlns="http://www.w3.org/2000/svg">
<path fill-rule="evenodd" clip-rule="evenodd" d="M9.80308 0.105713C12.2814 0.105713 14.3043 2.05773 14.4178 4.50804L14.4229 4.7255V5.69738C14.4229 6.12885 14.0731 6.47863 13.6416 6.47863C13.2461 6.47863 12.9192 6.18472 12.8675 5.80339L12.8604 5.69738V4.7255C12.8604 3.09748 11.5874 1.7664 9.9827 1.6734L9.80308 1.66821H4.72495C3.09781 1.66821 1.76688 2.94127 1.67389 4.5459L1.6687 4.7255V16.3193C1.6687 17.9472 2.94152 19.2783 4.54542 19.3714L4.72495 19.3765H9.81349C11.4357 19.3765 12.7625 18.1082 12.8552 16.5096L12.8604 16.3307V15.3484C12.8604 14.917 13.2101 14.5672 13.6416 14.5672C14.0371 14.5672 14.364 14.8611 14.4157 15.2424L14.4229 15.3484V16.3307C14.4229 18.8007 12.4783 20.8173 10.0368 20.9337L9.81349 20.939H4.72495C2.2474 20.939 0.224785 18.9869 0.111229 16.5367L0.106201 16.3193V4.7255C0.106201 2.24732 2.05803 0.224319 4.50756 0.110742L4.72495 0.105713H9.80308ZM21.2611 9.96051C21.408 10.1026 21.4994 10.3017 21.4994 10.5223C21.4994 10.7455 21.4058 10.9469 21.2556 11.0892L18.2192 14.1132C17.9135 14.4177 17.4188 14.4167 17.1143 14.111C16.8375 13.833 16.8132 13.399 17.0408 13.0936L17.1166 13.0061L18.825 11.3035H8.17542C7.74395 11.3035 7.39417 10.9537 7.39417 10.5223C7.39417 10.1268 7.68808 9.79989 8.06941 9.74816L8.17542 9.74103H18.8268L17.1167 8.03937C16.8387 7.76262 16.8125 7.32866 17.0388 7.02231L17.1142 6.93452C17.391 6.65654 17.825 6.63036 18.1313 6.85661L18.2191 6.93206L21.2611 9.96051Z" fill="#CD1A11"/>
</svg>
