<svg width="28" height="26" viewBox="0 0 28 26" fill="none" xmlns="http://www.w3.org/2000/svg">
<rect width="27.7253" height="26" rx="8" fill="#FF0F00" fill-opacity="0.1"/>
<rect x="0.5" y="0.5" width="26.7253" height="25" rx="7.5" stroke="#FF0F00" stroke-opacity="0.1"/>
<g clip-path="url(#clip0)">
<path d="M11.5254 7.31025C13.2877 7.31025 14.7163 8.72346 14.7163 10.4665C14.7163 12.2098 13.2877 13.623 11.5254 13.623C9.76337 13.623 8.33459 12.2098 8.33459 10.4665C8.33459 8.7233 9.76321 7.31025 11.5254 7.31025ZM15.3299 16.1319C14.9726 15.8923 15.3405 15.3552 15.6979 15.5948L16.4604 16.1059L17.7544 14.4133C18.0144 14.0728 18.5391 14.465 18.2792 14.8052L16.7974 16.7435L16.7966 16.7429C16.6921 16.88 16.4961 16.9135 16.351 16.816L15.3299 16.1319ZM10.5745 11.6713C10.3409 11.3112 10.8932 10.9598 11.1277 11.3201C11.3458 11.6554 11.974 11.5258 11.974 11.1532C11.974 10.5463 10.4182 11.0582 10.4182 9.77983C10.4182 9.31495 10.7578 8.93797 11.1961 8.8131V8.70029C11.1961 8.27143 11.8547 8.27143 11.8547 8.70029V8.81342C12.1097 8.8864 12.3348 9.04411 12.4764 9.26196C12.7102 9.62117 12.1579 9.97356 11.9232 9.61308C11.7051 9.27767 11.077 9.40824 11.077 9.77983C11.077 10.0577 11.2661 10.0788 11.5936 10.1484C12.1131 10.259 12.6326 10.3696 12.6326 11.1532C12.6326 11.6208 12.2927 11.994 11.8547 12.1196V12.2329C11.8547 12.6618 11.1961 12.6618 11.1961 12.2329V12.1196C10.9406 12.0465 10.7167 11.8893 10.5745 11.6713ZM11.8234 17.4739C11.567 17.1316 12.095 16.7448 12.351 17.0869L13.1026 18.0941C13.2304 18.2523 13.2039 18.4547 13.0424 18.5742L11.9623 19.4257C11.6254 19.6912 11.2159 19.1825 11.5533 18.9167L12.0161 18.552C10.0375 18.1633 8.57614 16.438 8.57614 14.4018C8.57614 13.973 9.23471 13.973 9.23471 14.4018C9.23471 16.127 10.4749 17.5884 12.1521 17.9143L11.8234 17.4739ZM16.7654 12.422C18.5277 12.422 19.9563 13.8351 19.9563 15.5783C19.9563 17.3215 18.5277 18.7348 16.7654 18.7348C15.0032 18.7348 13.5746 17.3215 13.5746 15.5783C13.5746 13.8353 15.0032 12.422 16.7654 12.422ZM16.7654 13.0735C15.367 13.0735 14.2333 14.1949 14.2333 15.5783C14.2333 16.9619 15.367 18.0833 16.7654 18.0833C18.1639 18.0833 19.2975 16.9619 19.2975 15.5783C19.2975 14.1949 18.1639 13.0735 16.7654 13.0735ZM16.4674 8.95907C16.7239 9.30131 16.1959 9.68813 15.9399 9.34605L15.1883 8.33886C15.0605 8.18067 15.0869 7.97822 15.2484 7.85875L16.3285 7.0072C16.6655 6.74176 17.075 7.25043 16.7375 7.51619L16.2748 7.88096C18.2532 8.26952 19.7147 9.99498 19.7147 12.0311C19.7147 12.46 19.0562 12.46 19.0562 12.0311C19.0562 10.306 17.816 8.84452 16.1388 8.51862L16.4674 8.95907ZM11.5254 7.96172C10.127 7.96172 8.99332 9.08314 8.99332 10.4665C8.99332 11.8501 10.127 12.9713 11.5254 12.9713C12.9239 12.9713 14.0575 11.8501 14.0575 10.4665C14.0575 9.08314 12.9239 7.96172 11.5254 7.96172Z" fill="#FF0F00"/>
</g>
<defs>
<clipPath id="clip0">
<rect width="13.5797" height="16.7917" fill="white" transform="translate(7.35571 6.5)"/>
</clipPath>
</defs>
</svg>
