<svg width="43" height="43" viewBox="0 0 43 43" fill="none" xmlns="http://www.w3.org/2000/svg">
<circle opacity="0.1" cx="21.5" cy="21.5" r="20.75" stroke="#040415" stroke-width="1.5"/>
<g clip-path="url(#clip0)">
<path d="M26.2258 30.5099L25.8695 31.2748L11.0391 25.3215L11.3954 24.5566L13.7557 23.6883L15.8933 19.0989C16.9957 16.7304 19.6434 15.3155 22.4034 15.6202C22.4337 15.5447 22.4682 15.4707 22.5067 15.3984C22.9002 14.5535 23.9569 14.1648 24.867 14.5301C25.7771 14.8955 26.1959 15.8765 25.8023 16.7214C25.772 16.7969 25.7375 16.8709 25.699 16.9432C27.8286 18.6013 28.5318 21.3612 27.4281 23.7293L25.2905 28.3186L26.2258 30.5099ZM19.7459 29.7245C19.3523 30.5694 18.2956 30.9581 17.3855 30.5928C16.4754 30.2275 16.0567 29.2464 16.4502 28.4015L19.7459 29.7245ZM30.8284 18.0036L29.1526 18.6201C29.9571 20.4761 29.9295 22.5537 29.0759 24.3908L30.7237 25.0523C31.7753 22.8108 31.813 20.2711 30.8284 18.0036ZM12.5976 17.776L14.2455 18.4375C15.1025 16.6017 16.7141 15.16 18.7218 14.4329L18.0578 12.8771C15.6038 13.7643 13.6365 15.5294 12.5976 17.776Z" fill="white"/>
</g>
<path d="M29.5053 20.4908C32.2335 21.9645 35.8042 21.1201 37.4422 18.4657C39.0801 15.8114 38.0764 12.496 35.3481 11.0222C32.6199 9.54847 29.0492 10.3929 27.4112 13.0473C25.7733 15.7016 26.777 19.017 29.5053 20.4908Z" fill="#CD1A11" stroke="#0F242F" stroke-width="3"/>
<defs>
<clipPath id="clip0">
<rect width="21.0018" height="20.3514" fill="white" transform="matrix(0.932506 0.377956 -0.416104 0.902016 18.5974 9.03149)"/>
</clipPath>
</defs>
</svg>
