<svg width="28" height="28" viewBox="0 0 28 28" fill="none" xmlns="http://www.w3.org/2000/svg">
<rect width="28" height="28" rx="10" fill="#002B43" fill-opacity="0.1"/>
<path d="M14 5.25C9.17 5.25 5.25 9.17 5.25 14C5.25 18.83 9.17 22.75 14 22.75C18.83 22.75 22.75 18.83 22.75 14C22.75 9.17 18.83 5.25 14 5.25ZM14 21C10.1413 21 7 17.8587 7 14C7 10.1413 10.1413 7 14 7C17.8587 7 21 10.1413 21 14C21 17.8587 17.8587 21 14 21ZM9.1875 18.8125L15.7587 15.7587L18.8125 9.1875L12.2413 12.2413L9.1875 18.8125ZM14 13.0375C14.5337 13.0375 14.9625 13.4663 14.9625 14C14.9625 14.5337 14.5337 14.9625 14 14.9625C13.4663 14.9625 13.0375 14.5337 13.0375 14C13.0375 13.4663 13.4663 13.0375 14 13.0375Z" fill="#002B43"/>
</svg>
