<svg width="35" height="75" viewBox="0 0 35 75" fill="none" xmlns="http://www.w3.org/2000/svg">
<path d="M29.5481 11.9277C29.6805 10.7717 30.7201 9.9408 31.8762 10.0733C33.0322 10.2057 33.8631 11.2453 33.7306 12.4014C33.5981 13.5574 32.5585 14.3883 31.4025 14.2558C30.2465 14.1274 29.4156 13.0837 29.5481 11.9277Z" fill="#FCC9A7"/>
<path d="M30.8366 11.446L28.4082 16.3391L30.3991 17.3947L32.3901 13.8504L30.8366 11.446Z" fill="#FCC9A7"/>
<path d="M14.7683 19.7109L25.6823 25.4469C26.1158 25.6957 26.6697 25.5271 26.8905 25.0776L31.9521 15.8896L29.0339 13.991L24.9678 20.7947L17.2851 15.9418C16.1451 15.0628 14.4873 15.4521 13.8572 16.7446C13.3394 17.8244 13.7367 19.1169 14.7683 19.7109Z" fill="#F9A772"/>
<path d="M16.5184 47.8888C16.5184 47.8888 13.7889 52.5892 12.2195 55.6318C11.9746 56.1054 11.5732 56.4546 11.216 56.852C10.1402 58.0482 9.1207 59.3407 7.92855 61.6487C6.15438 65.0887 3.19609 72.0248 3.19609 72.0248L1.12891 71.2581L3.35665 63.6236C3.35665 63.6236 3.72994 56.9122 8.03291 53.3117C8.03291 53.3117 9.20097 51.2806 10.2045 47.3229L16.5184 47.8888Z" fill="#F2C09E"/>
<path d="M20.3392 45.8578C20.3392 45.8578 17.5053 63.7962 17.979 72.6149L15.5305 72.7032L14.812 64.9562C14.812 64.9562 12.6765 59.6297 14.8401 55.0016L13.8406 44.5894L20.3392 45.8578Z" fill="#FCC9A7"/>
<path d="M13.2631 12.2209C13.2631 12.2209 10.5376 14.6533 11.228 18.2539C11.9184 21.8584 13.9254 23.4078 13.5882 25.784L21.3713 25.5031L21.2107 21.0917C21.2107 21.0917 23.7395 19.161 21.0301 16.0823L18.698 13.4251L16.6067 13.694L13.2631 12.2209Z" fill="#F9A772"/>
<path d="M17.3132 11.6227L18.8907 12.5419L19.9464 14.3201L17.7708 13.6538L17.3132 11.6227Z" fill="#F7EBE7"/>
<path d="M16.6108 13.6939C16.1412 13.6899 15.6434 13.4972 15.2741 13.3046C14.9089 13.1159 14.6841 12.7346 14.6841 12.3211L14.7603 4.7749L18.0598 4.79096L17.9836 12.2409C17.9795 13.1039 17.3614 13.6979 16.6108 13.6939Z" fill="#FCC9A7"/>
<path d="M18.0038 10.1536L16.643 8.22693C16.643 8.22693 15.8081 10.4266 17.9957 11.109L18.0038 10.1536Z" fill="#F2C09E"/>
<path d="M20.974 4.80709C20.962 7.05491 19.1316 8.8652 16.8878 8.85718C14.64 8.84513 12.8257 7.01477 12.8377 4.77097C12.8497 2.52315 14.6801 0.708843 16.9279 0.720885C19.1717 0.732927 20.986 2.55928 20.974 4.80709Z" fill="#FCC9A7"/>
<path d="M18.2967 10.1777C17.229 10.1737 16.37 9.3027 16.374 8.23499L16.3861 5.4493L20.974 4.80707L20.962 7.53656C20.954 9.00165 19.7618 10.1818 18.2967 10.1777Z" fill="#FCC9A7"/>
<path d="M20.8495 5.71826L21.7325 7.03083C21.857 7.24357 21.6924 7.50447 21.4315 7.50447L20.3999 7.69313L20.8495 5.71826Z" fill="#FCC9A7"/>
<path d="M14.6317 10.9244L18.7019 13.4291L17.8188 15.1671L13.2629 12.2249C13.2629 12.2209 13.8329 11.2254 14.6317 10.9244Z" fill="#F7EBE7"/>
<path d="M13.5921 25.788L13.0342 27.6906L21.4876 27.3856L21.3712 25.507L13.5921 25.788Z" fill="#F7EBE7"/>
<path d="M21.4873 27.3856L21.8727 48.7759C21.8727 48.7759 13.3551 50.4538 8.66675 47.5477C8.66675 47.5477 10.4971 40.6677 10.1559 37.854C9.52172 32.696 10.2482 30.4683 13.042 27.6866L21.4873 27.3856Z" fill="#E49258"/>
<path d="M14.7805 71.5471C14.8407 71.3343 15.0655 71.246 15.2301 71.3745C15.5472 71.6314 16.1091 71.9324 16.9119 71.816C17.7468 71.6916 18.0398 71.1858 18.1402 70.8245C18.1924 70.6359 18.369 70.5315 18.5335 70.6038L23.7316 72.9239C24.0487 73.0643 24.3016 73.3453 24.4381 73.6985C24.5665 74.0317 24.3578 74.405 24.0367 74.413L15.2461 74.5776C14.9009 74.5856 14.6199 74.2565 14.632 73.8631L14.6882 71.9204C14.6882 71.8883 14.6922 71.8561 14.7042 71.824L14.7805 71.5471Z" fill="white"/>
<path d="M0.787605 69.7729C0.90401 69.5843 1.14485 69.5562 1.26527 69.7247C1.50209 70.0579 1.9637 70.4954 2.7705 70.5958C3.6054 70.7001 4.02285 70.2867 4.21953 69.9656C4.31988 69.797 4.51658 69.7448 4.65707 69.8572L9.05636 73.4698C9.32529 73.6905 9.49388 74.0237 9.53402 74.405C9.57015 74.7623 9.26909 75.0673 8.96002 74.987L0.438392 72.8155C0.105234 72.7312 -0.0794119 72.3418 0.0329789 71.9645L0.602966 70.1061C0.610994 70.074 0.627052 70.0459 0.643108 70.0178L0.787605 69.7729Z" fill="white"/>
<path d="M16.39 6.56516L18.1201 6.50094C18.1201 6.50094 18.2686 4.99972 18.6058 4.63846C18.9429 4.2772 19.1155 2.67162 19.1155 2.67162C19.1155 2.67162 19.4246 3.6711 19.1878 4.7067L21.6845 4.61839C21.6845 4.61839 22.2263 0.219093 16.7353 0.00635279C11.2442 -0.206387 11.3927 4.98767 12.4724 6.01926C13.3314 6.83811 14.7243 8.29518 14.7243 8.29518C14.7243 8.29518 14.66 6.62537 16.39 6.56516Z" fill="#4C1827"/>
<path d="M17.6423 6.03137C17.6664 6.6736 17.1646 7.21147 16.5224 7.23556C15.8802 7.25964 15.3423 6.7579 15.3182 6.11566C15.2941 5.47343 15.7959 4.93556 16.4381 4.91147C17.0803 4.89141 17.6182 5.38913 17.6423 6.03137Z" fill="#FCC9A7"/>
<path d="M13.2349 6.85821C13.2871 8.30725 12.1551 9.52749 10.7061 9.57967C9.25707 9.63186 8.03683 8.49992 7.98464 7.04687C7.93246 5.59783 9.06441 4.37758 10.5134 4.3254C11.9665 4.27322 13.1827 5.40516 13.2349 6.85821Z" fill="#4C1827"/>
<path d="M16.1447 30.2756C17.2887 30.4763 18.0554 31.5641 17.8587 32.7121C17.658 33.8561 16.5702 34.6227 15.4222 34.4261C14.2782 34.2254 13.5116 33.1376 13.7083 31.9896C13.909 30.8416 15.0008 30.0749 16.1447 30.2756Z" fill="#FCC9A7"/>
<path d="M16.8593 30.5405L12.1189 27.827L10.9468 29.7497L14.3667 31.9494L16.8593 30.5405Z" fill="#FCC9A7"/>
<path d="M11.846 13.9709L4.23956 23.9657C3.91844 24.351 3.98668 24.925 4.39209 25.222L12.6127 31.5641L14.9889 29.0232L8.9399 24.078L15.1134 17.1138C16.1771 16.1465 16.0847 14.4446 14.9207 13.5976C13.9533 12.8912 12.6127 13.0597 11.846 13.9709Z" fill="#F9A772"/>
<path d="M34.5048 7.23554L32.2329 13.2685C32.1727 13.4331 31.9921 13.5174 31.8275 13.4652L28.797 12.5099C28.6163 12.4537 28.52 12.253 28.5922 12.0764L30.9404 6.12367C31.0046 5.96713 31.1732 5.88284 31.3378 5.931L34.2921 6.80203C34.4767 6.85823 34.573 7.05491 34.5048 7.23554Z" fill="#1C2226"/>
<path d="M33.7384 7.49243L32.0244 12.3654C31.9843 12.4778 31.8639 12.542 31.7475 12.5139L29.4756 11.9238C29.3391 11.8877 29.2668 11.7432 29.319 11.6148L31.2658 6.69767C31.3099 6.58528 31.4344 6.52507 31.5508 6.56119L33.5899 7.19941C33.7143 7.23554 33.7825 7.368 33.7384 7.49243Z" fill="#EFEFEF"/>
</svg>
