<svg width="275" height="159" viewBox="0 0 275 159" fill="none" xmlns="http://www.w3.org/2000/svg">
<rect opacity="0.15" width="275" height="158.692" rx="10" fill="#A9A5AF"/>
<rect opacity="0.15" x="19.7131" y="19.7134" width="170.52" height="14.7849" rx="3" fill="#A9A5AF"/>
<rect opacity="0.15" x="19.7131" y="39.4265" width="101.523" height="14.7849" rx="3" fill="#A9A5AF"/>
<rect opacity="0.15" x="69.9819" y="68.9966" width="101.523" height="9.85663" rx="3" fill="#A9A5AF"/>
<rect opacity="0.15" x="69.9819" y="88.7097" width="120.251" height="9.85663" rx="3" fill="#A9A5AF"/>
<rect opacity="0.15" x="19.7131" y="123.208" width="43.3692" height="15.7706" rx="3" fill="#A9A5AF"/>
<rect opacity="0.15" x="82.7954" y="123.208" width="43.3692" height="15.7706" rx="3" fill="#A9A5AF"/>
<rect opacity="0.15" x="145.878" y="123.208" width="43.3692" height="15.7706" rx="3" fill="#A9A5AF"/>
<rect opacity="0.15" x="208.96" y="123.208" width="43.3692" height="15.7706" rx="3" fill="#A9A5AF"/>
<path opacity="0.8" d="M101.536 123.18C103.324 123.18 104.668 122.304 105.268 120.684L103.864 120.156C103.504 121.212 102.688 121.752 101.536 121.752C99.928 121.752 98.98 120.684 98.98 118.8C98.98 116.928 99.916 115.872 101.536 115.872C102.676 115.872 103.492 116.388 103.864 117.432L105.244 116.892C104.632 115.296 103.3 114.444 101.536 114.444C99.064 114.444 97.48 116.136 97.48 118.812C97.48 121.488 99.064 123.18 101.536 123.18ZM107.586 123.12C107.862 123.12 108.186 123.06 108.51 122.94V121.788C108.342 121.836 108.186 121.86 108.054 121.86C107.79 121.86 107.634 121.752 107.634 121.488V114.636H106.194V121.584C106.194 122.64 106.782 123.12 107.586 123.12ZM109.558 115.968H111.07V114.636H109.558V115.968ZM109.594 123H111.034V117.084H109.594V123ZM115.063 123.12C116.239 123.12 117.151 122.472 117.547 121.368L116.239 120.864C116.083 121.476 115.627 121.86 115.051 121.86C114.043 121.86 113.671 120.996 113.671 120.06C113.671 119.124 114.055 118.224 115.051 118.224C115.639 118.224 116.083 118.62 116.239 119.244L117.607 118.704C117.151 117.528 116.227 116.964 115.051 116.964C113.119 116.964 112.195 118.5 112.195 120.06C112.195 121.62 113.131 123.12 115.063 123.12ZM118.653 123H120.093V121.272L121.005 120.264L122.733 123H124.449L121.989 119.376L124.197 117.084H122.265L120.093 119.484V114.636H118.653V123ZM131.289 118.224V117.084H129.813V114.876L128.373 115.944V117.084H127.413V118.224H128.373V121.344C128.373 122.604 129.213 123.12 130.209 123.12C130.569 123.12 130.929 123.06 131.289 122.94V121.788C131.025 121.872 130.773 121.92 130.569 121.92C130.101 121.92 129.813 121.704 129.813 121.236V118.224H131.289ZM134.928 123.12C136.752 123.12 137.892 121.704 137.892 120.036C137.892 118.356 136.752 116.964 134.928 116.964C133.092 116.964 131.964 118.356 131.964 120.036C131.964 121.704 133.092 123.12 134.928 123.12ZM134.928 121.86C133.836 121.86 133.404 120.996 133.404 120.036C133.404 119.064 133.836 118.224 134.928 118.224C136.02 118.224 136.452 119.064 136.452 120.036C136.452 120.996 136.02 121.86 134.928 121.86ZM145.693 117.084V119.328C145.693 120.384 145.693 121.86 144.349 121.86C143.257 121.86 143.257 120.828 143.257 120.42V117.084H141.817V120.78C141.817 122.04 142.441 123.12 143.929 123.12C144.625 123.12 145.273 122.88 145.693 122.316V123H147.133V117.084H145.693ZM151.973 116.964C151.337 116.964 150.677 117.168 150.269 117.672V117.084H148.829V125.448H150.269V122.4C150.641 122.844 151.301 123.12 151.973 123.12C153.425 123.12 154.469 121.98 154.469 120.048C154.469 118.272 153.581 116.964 151.973 116.964ZM151.613 121.86C150.581 121.86 150.137 121.068 150.137 120.036C150.137 118.98 150.581 118.224 151.625 118.224C152.585 118.224 153.029 118.872 153.029 120.036C153.029 121.188 152.573 121.86 151.613 121.86ZM157.027 123.12C157.303 123.12 157.627 123.06 157.951 122.94V121.788C157.783 121.836 157.627 121.86 157.495 121.86C157.231 121.86 157.075 121.752 157.075 121.488V114.636H155.635V121.584C155.635 122.64 156.223 123.12 157.027 123.12ZM161.471 123.12C163.295 123.12 164.435 121.704 164.435 120.036C164.435 118.356 163.295 116.964 161.471 116.964C159.635 116.964 158.507 118.356 158.507 120.036C158.507 121.704 159.635 123.12 161.471 123.12ZM161.471 121.86C160.379 121.86 159.947 120.996 159.947 120.036C159.947 119.064 160.379 118.224 161.471 118.224C162.563 118.224 162.995 119.064 162.995 120.036C162.995 120.996 162.563 121.86 161.471 121.86ZM167.878 116.964C166.798 116.964 165.922 117.384 165.214 118.236L166.258 119.112C166.69 118.536 167.254 118.224 167.854 118.224C168.538 118.224 168.97 118.62 168.97 119.268V119.436H167.494C166.822 119.436 166.318 119.52 165.922 119.7C165.346 119.964 165.034 120.492 165.034 121.188C165.034 122.316 165.922 123.12 167.17 123.12C167.95 123.12 168.622 122.784 168.97 122.232L169.09 123H170.41V119.268C170.41 117.84 169.438 116.964 167.878 116.964ZM167.398 121.896C166.822 121.896 166.474 121.632 166.474 121.212C166.474 120.996 166.558 120.828 166.714 120.72C166.906 120.576 167.194 120.516 167.686 120.516H168.97C168.97 121.284 168.262 121.896 167.398 121.896ZM175.647 114.636V117.684C175.275 117.24 174.615 116.964 173.943 116.964C172.491 116.964 171.447 118.104 171.447 120.036C171.447 121.812 172.335 123.12 173.943 123.12C174.579 123.12 175.239 122.916 175.647 122.412V123H177.087V114.636H175.647ZM174.291 121.788C173.331 121.788 172.887 121.14 172.887 120.048C172.887 118.944 173.343 118.272 174.303 118.272C175.335 118.272 175.779 119.064 175.779 120.048C175.779 121.032 175.335 121.788 174.291 121.788Z" fill="#CD1A11"/>
<g clip-path="url(#clip0)">
<path d="M148.83 80.0971C147.509 73.677 141.233 69.5435 134.813 70.8646C129.316 71.9958 125.362 76.8234 125.337 82.4359C125.337 82.7033 125.348 82.9771 125.372 83.2667C121.461 83.6807 118.626 87.1867 119.04 91.0976C119.424 94.7226 122.483 97.4726 126.128 97.469H126.959C126.94 97.2064 126.92 96.9453 126.92 96.6778C126.92 90.9971 131.525 86.392 137.205 86.392C142.886 86.392 147.491 90.9971 147.491 96.6778C147.491 96.9452 147.471 97.2063 147.452 97.469H148.282C153.084 97.4821 156.987 93.6004 157 88.7989C157.013 84.1917 153.429 80.3747 148.83 80.0971Z" fill="#FF652F" fill-opacity="0.2"/>
<path d="M137.205 105.381C142.012 105.381 145.909 101.485 145.909 96.6779C145.909 91.8712 142.012 87.9746 137.205 87.9746C132.399 87.9746 128.502 91.8712 128.502 96.6779C128.502 101.485 132.399 105.381 137.205 105.381Z" fill="#FF652F"/>
<path d="M137.205 102.216C136.768 102.216 136.414 101.862 136.414 101.425V91.9306C136.414 91.4937 136.768 91.1394 137.205 91.1394C137.642 91.1394 137.996 91.4937 137.996 91.9306V101.425C137.996 101.862 137.642 102.216 137.205 102.216Z" fill="#FAFAFA"/>
<path d="M140.37 95.888C140.16 95.8884 139.959 95.8053 139.81 95.6569L137.205 93.0507L134.601 95.6569C134.286 95.9605 133.786 95.9518 133.482 95.6375C133.186 95.3309 133.186 94.8448 133.482 94.5381L136.647 91.3733C136.956 91.0644 137.457 91.0644 137.766 91.3733L140.93 94.5381C141.239 94.8476 141.238 95.3486 140.929 95.6571C140.78 95.8049 140.58 95.8879 140.37 95.888Z" fill="#FAFAFA"/>
</g>
<defs>
<clipPath id="clip0">
<rect width="38" height="38" fill="white" transform="translate(119 69)"/>
</clipPath>
</defs>
</svg>
